<svg width="75" height="75" viewBox="0 0 75 75" fill="none" xmlns="http://www.w3.org/2000/svg">
<path d="M29.1428 73.9263C31.8005 74.5261 34.5655 74.8448 37.4039 74.8448C39.3975 74.8448 41.3536 74.6872 43.2614 74.3864L36.9421 67.1297L29.1428 73.9263Z" fill="#fff"/>
<path d="M74.8075 37.4224C74.8075 30.6938 73.0304 24.3807 69.9236 18.9234L55.7835 31.2471L65.8396 42.7956L53.0722 53.9233L22.5228 18.841L35.2902 7.7133L45.3463 19.2618L59.3109 7.09022C53.1527 2.63198 45.5861 0 37.4038 0C16.7458 0 0 16.7533 0 37.4206C0 49.0675 5.31885 59.4719 13.6604 66.3347L26.5048 55.139L16.4487 43.5905L29.2161 32.4628L59.6993 67.4681C68.8677 60.6518 74.8075 49.7318 74.8075 37.4224Z" fill="#fff"/>
</svg>
